#N canvas 504 23 1075 732 12;
#X obj 511 632 gemhead;
#X obj 338 104 readsf~ 2;
#X msg 378 45 start;
#X msg 381 69 stop;
#X floatatom 382 309 5 0 0 0 - - -, f 5;
#X floatatom 330 369 5 0 0 0 - - -, f 5;
#X floatatom 333 432 5 0 0 0 - - -, f 5;
#X obj 195 136 output~;
#X msg 64 40 open PdBlackMartini-FarAwayFinal.wav;
#X obj 388 134 lop~;
#X floatatom 449 114 10 0 0 0 - - -, f 10;
#X obj 449 55 loadbang;
#X floatatom 370 530 5 0 0 0 - - -, f 5;
#X obj 376 482 - 4;
#X obj 370 555 * 3;
#X floatatom 372 587 5 0 0 0 - - -, f 5;
#X floatatom 378 633 5 0 0 0 - - -, f 5;
#X obj 554 63 vsl 15 225 1500 20000 0 0 empty empty empty 0 -9 0 10
-262144 -1 -1 10292 1;
#X obj 531 86 vsl 15 200 30 1500 0 0 empty empty empty 0 -9 0 10 -262144
-1 -1 5600 1;
#X text 476 248 30-1500;
#X msg 102 10 open StripedPantz-BlackMartiniFinal.wav;
#X obj 527 351 hip~;
#X obj 354 156 gd_vumeter;
#X obj 502 372 gd_vumeter;
#X text 569 242 1500-20k;
#X floatatom 553 312 10 0 0 0 - - -, f 10;
#X obj 382 334 abs;
#X obj 374 608 - 2;
#X obj 333 410 / 6;
#X msg 449 94 162;
#X msg 553 39 10000;
#X obj 555 16 loadbang;
#X obj 645 122 WindowControls;
#X obj 647 103 bng 15 250 50 0 empty empty empty 17 7 0 10 -4034 -1
-1;
#X obj 726 101 bng 15 250 50 0 empty empty empty 17 7 0 10 -258113
-1 -1;
#X text 643 86 ON;
#X text 718 86 OFF;
#X obj 610 703 MakeSphere;
#X obj 132 698 part_head;
#X msg 232 690 speed \$1;
#X floatatom 231 652 5 0 0 0 - - -, f 5;
#X floatatom 177 783 5 0 0 0 - - -, f 5;
#X obj 154 829 part_killold;
#X floatatom 304 808 5 0 0 0 - - -, f 5;
#X floatatom 335 868 5 0 0 0 - - -, f 5;
#X obj 154 952 part_color;
#X obj 153 977 part_render;
#X obj 211 1022 sphere;
#X floatatom 262 991 5 0 0 0 - - -, f 5;
#X floatatom 321 986 5 0 0 0 - - -, f 5;
#X obj 115 661 gemhead;
#X text 668 64 Window;
#X msg 241 625 0.8;
#X msg 260 968 0.09;
#X obj 67 399 / 10;
#X obj 507 663 world_light;
#X obj 154 854 part_velocity sphere 0 0;
#X obj 270 600 r loadbang;
#X obj 956 53 s loadbang;
#X obj 260 940 r loadbang;
#X obj 956 21 loadbang;
#X obj 756 485 s colordata;
#X obj 169 925 r colordata;
#X obj 595 665 r colordata;
#X floatatom 653 623 5 0 0 0 - - -, f 5;
#X obj 153 890 part_orbitpoint 0 0 0;
#X obj 66 431 - 0.5;
#X obj 153 805 part_source;
#X obj 67 456 abs;
#X obj 68 480 + 5;
#X floatatom 68 502 5 0 0 0 - - -, f 5;
#X text 851 436 RGB Data;
#X obj 757 435 pack \$1 \$3 \$3;
#X msg 757 459 \$1 \$2 \$3;
#X obj 762 267 vsl 15 128 0 12 0 0 empty empty empty 0 -9 0 10 -262144
-1 -1 12344 1;
#X obj 801 267 vsl 15 128 0 12 0 0 empty empty empty 0 -9 0 10 -262144
-1 -1 0 1;
#X obj 844 267 vsl 15 128 0 12 0 0 empty empty empty 0 -9 0 10 -262144
-1 -1 10583 1;
#X obj 801 235 bng 15 250 50 0 empty empty empty 17 7 0 10 -262144
-1 -1;
#X floatatom 760 408 5 0 0 0 - - -, f 5;
#X floatatom 806 407 5 0 0 0 - - -, f 5;
#X floatatom 848 408 5 0 0 0 - - -, f 5;
#X msg 303 781 7;
#X obj 67 529 s partsegments;
#X obj 320 962 r partsegments;
#X text 691 622 Sphere slices;
#X obj 255 502 s numofparts;
#X obj 792 177 r loadbang;
#X obj 179 738 r numofparts;
#X obj 424 643 moses 5;
#X floatatom 530 582 5 0 0 0 - - -, f 5;
#X obj 700 501 +;
#X obj 698 456 bng 15 250 50 0 empty empty empty 17 7 0 10 -262144
-1 -1;
#X floatatom 716 555 5 0 0 0 - - -, f 5;
#X obj 470 570 - 3;
#X msg 861 238 10;
#X msg 744 239 2;
#X obj 343 453 moses 3;
#X obj 276 473 pow 2;
#X msg 18 102 open Slump-SpotifyUpdate44.1.wav;
#X msg 13 256 open SubtronicsTrollPhace-MechaDoodle.wav;
#X obj 148 330 hsl 128 15 -2 2 0 0 empty empty SensitivityTrim -2 -8
0 10 -262144 -1 -1 6300 1;
#X floatatom 410 367 5 0 0 0 - - -, f 5;
#X floatatom 146 351 5 0 0 0 - - -, f 5;
#X obj 430 415 bng 15 250 50 0 empty empty empty 17 7 0 10 -262144
-1 -1;
#X obj 328 346 +;
#X obj 332 390 abs;
#X msg 354 841 0;
#X obj 178 762 abs;
#X connect 0 0 37 0;
#X connect 0 0 55 0;
#X connect 1 0 7 0;
#X connect 1 0 9 0;
#X connect 1 0 21 0;
#X connect 1 1 7 1;
#X connect 1 1 9 0;
#X connect 1 1 21 0;
#X connect 2 0 1 0;
#X connect 3 0 1 0;
#X connect 4 0 26 0;
#X connect 5 0 105 0;
#X connect 6 0 96 0;
#X connect 6 0 97 0;
#X connect 8 0 1 0;
#X connect 9 0 22 0;
#X connect 9 0 22 1;
#X connect 10 0 9 1;
#X connect 11 0 29 0;
#X connect 12 0 14 0;
#X connect 12 0 93 0;
#X connect 13 0 12 0;
#X connect 14 0 15 0;
#X connect 15 0 27 0;
#X connect 16 0 88 0;
#X connect 17 0 25 0;
#X connect 18 0 10 0;
#X connect 20 0 1 0;
#X connect 21 0 23 0;
#X connect 21 0 23 1;
#X connect 22 0 4 0;
#X connect 23 0 64 0;
#X connect 25 0 21 1;
#X connect 26 0 101 0;
#X connect 27 0 16 0;
#X connect 28 0 6 0;
#X connect 29 0 10 0;
#X connect 30 0 17 0;
#X connect 31 0 30 0;
#X connect 33 0 32 0;
#X connect 34 0 32 1;
#X connect 38 0 67 0;
#X connect 39 0 38 0;
#X connect 40 0 39 0;
#X connect 41 0 67 1;
#X connect 42 0 56 0;
#X connect 43 0 42 1;
#X connect 44 0 65 2;
#X connect 45 0 46 0;
#X connect 46 0 47 0;
#X connect 48 0 47 1;
#X connect 49 0 47 2;
#X connect 50 0 38 0;
#X connect 52 0 40 0;
#X connect 53 0 48 0;
#X connect 54 0 66 0;
#X connect 56 0 65 0;
#X connect 57 0 52 0;
#X connect 57 0 81 0;
#X connect 59 0 53 0;
#X connect 60 0 58 0;
#X connect 62 0 45 1;
#X connect 62 0 45 2;
#X connect 63 0 37 1;
#X connect 64 0 37 3;
#X connect 65 0 45 0;
#X connect 66 0 68 0;
#X connect 67 0 42 0;
#X connect 68 0 69 0;
#X connect 68 0 40 0;
#X connect 69 0 70 0;
#X connect 70 0 82 0;
#X connect 72 0 73 0;
#X connect 73 0 61 0;
#X connect 74 0 78 0;
#X connect 75 0 79 0;
#X connect 76 0 80 0;
#X connect 77 0 74 0;
#X connect 77 0 75 0;
#X connect 77 0 76 0;
#X connect 78 0 72 0;
#X connect 79 0 72 1;
#X connect 80 0 72 2;
#X connect 81 0 43 0;
#X connect 83 0 49 0;
#X connect 86 0 95 0;
#X connect 86 0 94 0;
#X connect 87 0 107 0;
#X connect 88 0 37 2;
#X connect 89 0 91 0;
#X connect 89 0 90 0;
#X connect 90 0 92 0;
#X connect 91 0 95 0;
#X connect 92 0 74 0;
#X connect 93 0 89 0;
#X connect 94 0 76 0;
#X connect 95 0 90 1;
#X connect 96 0 12 0;
#X connect 96 1 13 0;
#X connect 97 0 85 0;
#X connect 98 0 1 0;
#X connect 99 0 1 0;
#X connect 100 0 102 0;
#X connect 100 0 104 0;
#X connect 101 0 103 0;
#X connect 101 0 104 1;
#X connect 103 0 100 0;
#X connect 104 0 5 0;
#X connect 105 0 28 0;
#X connect 105 0 54 0;
#X connect 106 0 44 0;
#X connect 107 0 41 0;
