#N canvas 0 0 681 485 10;
#X obj 249 173 vu 15 120 empty empty -1 -8 0 10 -66577 -1 1 0;
#X floatatom 248 304 5 0 0 0 - - -;
#X floatatom 248 105 5 0 0 0 - - -;
#X floatatom 248 147 5 0 0 0 - - -;
#X obj 248 124 - 100;
#X floatatom 356 105 5 0 0 0 - - -;
#X floatatom 356 147 5 0 0 0 - - -;
#X obj 356 124 - 100;
#X obj 297 173 vu 15 120 empty empty -1 -8 0 10 -66577 -1 1 0;
#X floatatom 258 329 5 0 0 0 - - -;
#X floatatom 296 305 5 0 0 0 - - -;
#X floatatom 306 330 5 0 0 0 - - -;
#X obj 247 51 inlet~;
#X obj 355 50 inlet~;
#X obj 205 367 outlet;
#X obj 253 367 outlet;
#X obj 301 367 outlet;
#X obj 349 367 outlet;
#X obj 356 79 env~ 4096;
#X obj 248 78 env~ 4096;
#X connect 0 0 1 0;
#X connect 0 1 9 0;
#X connect 1 0 14 0;
#X connect 2 0 4 0;
#X connect 3 0 0 0;
#X connect 3 0 0 1;
#X connect 4 0 3 0;
#X connect 5 0 7 0;
#X connect 6 0 8 0;
#X connect 6 0 8 1;
#X connect 7 0 6 0;
#X connect 8 0 10 0;
#X connect 8 1 11 0;
#X connect 9 0 15 0;
#X connect 10 0 16 0;
#X connect 11 0 17 0;
#X connect 12 0 19 0;
#X connect 13 0 18 0;
#X connect 18 0 5 0;
#X connect 19 0 2 0;
#X coords 0 -1 1 1 115 150 1 235 155;
