#N canvas 405 87 511 422 10;
#X obj 243 269 inlet;
#X text 213 251 Size inlet;
#X obj 279 175 inlet;
#X text 252 157 Slices inlet;
#X obj 234 295 sphere;
#X floatatom 284 274 5 0 0 0 - - -, f 5;
#X obj 14 240 gemhead;
#X obj 23 263 translateXYZ;
#X msg 104 237 0;
#X msg 73 237 0;
#X msg 133 235 0;
#X floatatom 282 219 5 0 0 0 - - -, f 5;
#X obj 280 196 abs;
#X text 327 277 Slices;
#X obj 283 247 - 12;
#X obj 181 224 color;
#X obj 200 195 inlet;
#X obj 140 200 inlet;
#X text 121 184 Gemhhead;
#X text 196 177 Color;
#X connect 0 0 4 1;
#X connect 2 0 12 0;
#X connect 5 0 4 2;
#X connect 6 0 7 0;
#X connect 7 0 4 0;
#X connect 8 0 7 2;
#X connect 9 0 7 1;
#X connect 10 0 7 3;
#X connect 11 0 14 0;
#X connect 12 0 11 0;
#X connect 14 0 5 0;
#X connect 15 0 4 0;
#X connect 16 0 15 1;
#X connect 17 0 15 0;
