#N canvas 377 132 995 693 12;
#X obj 345 661 part_head;
#X obj 344 634 part_draw;
#X obj 345 688 part_source 2;
#X obj 345 742 part_killold 2;
#X obj 345 715 part_gravity -0.5 -0.01 0;
#X floatatom 423 658 5 0 0 0 - - -, f 5;
#X obj 140 51 gemhead;
#X obj 140 83 part_head;
#X obj 140 137 part_color;
#X obj 140 621 part_draw;
#X text 271 38 set the color range;
#X text 241 175 set the size;
#X text 272 276 set the number per frame;
#X text 263 589 set the age to kill at;
#X text 386 197 the velocity domain;
#X text 384 231 radius = 0.2;
#X obj 302 62 loadbang;
#X text 383 215 a sphere at -1 0 0;
#X text 303 319 apply a gravity to the right;
#X obj 140 462 part_color;
#X obj 193 384 loadbang;
#X msg 217 422 0.4 0.4 0.4;
#X msg 169 421 1 0 0;
#X obj 140 538 part_gravity -0.01 -0.02 0;
#X msg 266 97 0.4 0.4 0.4;
#X msg 365 97 0 1 0;
#X obj 317 420 metro 1000;
#N canvas 0 22 450 300 tripleRand 0;
#X obj 94 71 inlet;
#X obj 94 252 outlet;
#X obj 94 221 pack 0 0 0;
#X obj 94 104 t b b b;
#X obj 94 134 random 1000;
#X obj 94 154 / 1000;
#X obj 94 175 * 0.1;
#X obj 194 134 random 1000;
#X obj 194 154 / 1000;
#X obj 294 134 random 1000;
#X obj 294 154 / 1000;
#X obj 194 175 * 0.2;
#X obj 294 175 * 0;
#X connect 0 0 3 0;
#X connect 2 0 1 0;
#X connect 3 0 4 0;
#X connect 3 1 7 0;
#X connect 3 2 9 0;
#X connect 4 0 5 0;
#X connect 5 0 6 0;
#X connect 6 0 2 0;
#X connect 7 0 8 0;
#X connect 8 0 11 0;
#X connect 9 0 10 0;
#X connect 10 0 12 0;
#X connect 11 0 2 1;
#X connect 12 0 2 2;
#X restore 317 454 pd tripleRand (0.1 0.2 0);
#N canvas 0 22 450 300 v* 0;
#X obj 90 62 unpack 0 0 0;
#X obj 90 42 inlet;
#X obj 90 137 pack 0 0 0;
#X obj 90 156 outlet;
#X obj 90 90 * -1;
#X obj 127 110 * -1;
#X obj 165 90 * -1;
#X connect 0 0 4 0;
#X connect 0 1 5 0;
#X connect 0 2 6 0;
#X connect 1 0 0 0;
#X connect 2 0 3 0;
#X connect 4 0 2 0;
#X connect 5 0 2 1;
#X connect 6 0 2 2;
#X restore 317 484 pd v* (-1);
#N canvas 0 22 450 300 tripleLine 0;
#X obj 94 71 inlet;
#X obj 94 252 outlet;
#X obj 94 104 unpack 0 0 0;
#X obj 94 221 pack 0 0 0;
#X obj 94 176 line;
#X msg 94 153 \$1 1000;
#X obj 164 176 line;
#X msg 164 153 \$1 1000;
#X obj 234 176 line;
#X msg 234 153 \$1 1000;
#X connect 0 0 2 0;
#X connect 2 0 5 0;
#X connect 2 1 7 0;
#X connect 2 2 9 0;
#X connect 3 0 1 0;
#X connect 4 0 3 0;
#X connect 5 0 4 0;
#X connect 6 0 3 1;
#X connect 7 0 6 0;
#X connect 8 0 3 2;
#X connect 9 0 8 0;
#X restore 317 506 pd tripleLine (1000);
#X obj 317 393 tgl 15 0 empty empty empty 17 7 0 10 -262144 -1 -1 0
1;
#X floatatom 202 253 5 0 0 0 - - -, f 5;
#X obj 140 498 part_source;
#X floatatom 236 467 5 0 0 0 - - -, f 5;
#X obj 95 302 vsl 15 128 0 127 0 0 empty empty empty 0 -9 0 10 -262144
-1 -1 0 1;
#X obj 140 587 part_killold 2;
#X obj 140 175 part_size 2;
#X obj 140 221 part_velocity blob -0.1 0 0 0.1;
#X obj 140 318 part_gravity 1 0 0;
#X obj 140 353 part_velocity blob 0 0 0 0.05;
#X obj 140 278 part_source;
#X msg 253 262 blob;
#X obj 255 241 loadbang;
#X msg 416 603 5 0 60;
#X connect 2 0 4 0;
#X connect 4 0 3 0;
#X connect 5 0 2 1;
#X connect 7 0 8 0;
#X connect 8 0 36 0;
#X connect 16 0 25 0;
#X connect 16 0 24 0;
#X connect 19 0 32 0;
#X connect 20 0 21 0;
#X connect 20 0 22 0;
#X connect 21 0 19 2;
#X connect 22 0 19 1;
#X connect 23 0 35 0;
#X connect 24 0 8 1;
#X connect 25 0 8 2;
#X connect 26 0 27 0;
#X connect 27 0 28 0;
#X connect 28 0 29 0;
#X connect 29 0 23 1;
#X connect 30 0 26 0;
#X connect 31 0 40 1;
#X connect 32 0 23 0;
#X connect 33 0 32 1;
#X connect 34 0 31 0;
#X connect 34 0 33 0;
#X connect 34 0 5 0;
#X connect 36 0 37 0;
#X connect 37 0 40 0;
#X connect 38 0 39 0;
#X connect 39 0 19 0;
#X connect 40 0 38 0;
#X connect 41 0 40 2;
#X connect 42 0 41 0;
