#N canvas 898 485 450 300 10;
#X obj 144 71 inlet;
#X text -14 70 Create/format window and turn on lighting and rendering
;
#X obj 209 239 gemwin;
#X msg 152 213 destroy;
#X msg 231 212 1;
#X msg 267 203 0;
#X msg 161 131 reset \, dimen 1080 720 \, create;
#X msg 227 152 lighting 1;
#X obj 145 186 inlet;
#X text 47 188 Destroy window;
#X connect 0 0 6 0;
#X connect 0 0 7 0;
#X connect 0 0 4 0;
#X connect 3 0 2 0;
#X connect 4 0 2 0;
#X connect 5 0 2 0;
#X connect 6 0 2 0;
#X connect 7 0 2 0;
#X connect 8 0 3 0;
